# xmcd
#
# Track frame offsets:
#	182
#	16900
#	29195
#	42490
#	60000
#	80620
#	90397
#	107095
#	115792
#	129915
#	141442
#	153660
#	170700
#	193272
#	218502
#	233707
#	249860
#	256797
#	277757
#	286810
#	301510
#
# Disc length: 4164 seconds
#
# Revision: 5
# Processed by: cddbd v1.5.2PL0 Copyright (c) Steve Scherf et al.
# Submitted via: EZCDAudioConverter 3.1.0.1
#
DISCID=12104215
DTITLE=Renato Russo - The Stonewall Celebration Concert
DYEAR=1994
DGENRE=Pop
TTITLE0=Send In The Clowns
TTITLE1=Clothes Of Sand
TTITLE2=Cathedral Song
TTITLE3=Love Is
TTITLE4=Cherish
TTITLE5=Miss Celie's Blues
TTITLE6=The Ballad Of The Sad Young Men
TTITLE7=If I Loved You
TTITLE8=And So It Goes
TTITLE9=I Get Along Without You Very Well
TTITLE10=Somewhere In My Broken Heart
TTITLE11=If You See Him, Say Hello
TTITLE12=If Tomorrow Never Comes
TTITLE13=The Heart Of The Matter
TTITLE14=Old Friend
TTITLE15=Say It Isn't So
TTITLE16=Let's Face The Music And Dance
TTITLE17=Somewhere
TTITLE18=Paper Of Pins
TTITLE19=When You Wish Upon A Star
TTITLE20=Close The Door Lightly When You Go
EXTD=
EXTT0=
EXTT1=
EXTT2=
EXTT3=
EXTT4=
EXTT5=
EXTT6=
EXTT7=
EXTT8=
EXTT9=
EXTT10=
EXTT11=
EXTT12=
EXTT13=
EXTT14=
EXTT15=
EXTT16=
EXTT17=
EXTT18=
EXTT19=
EXTT20=
PLAYORDER=
